<svg width="0" height="0" class="hidden">
    <!-- Navbar icons -->
    <symbol id="search"
        xmlns="http://www.w3.org/2000/svg" viewBox="0 0 28.051 27.649">
        <g id="search" transform="translate(-380.62 -66)">
            <path id="Path_3" d="M380.62,76.178A10.178,10.178,0,1,0,390.8,66,10.178,10.178,0,0,0,380.62,76.178Zm2.349,0a7.829,7.829,0,1,1,7.829,7.829A7.838,7.838,0,0,1,382.969,76.178Z" fill="#757db1"></path>
            <path id="Rectangle_4" d="M1.566,0H3.132A1.566,1.566,0,0,1,4.7,1.566V9.4a1.565,1.565,0,0,1-1.565,1.565H1.567A1.567,1.567,0,0,1,0,9.394V1.566A1.566,1.566,0,0,1,1.566,0Z" transform="translate(397.599 85.897) rotate(-44.994)" fill="#757db1"></path>
        </g>
    </symbol>
    <symbol id="gear"
        xmlns="http://www.w3.org/2000/svg" viewBox="0 0 27 27">
        <path d="M339.412,75.529h-3.155l2.26-2.259a1.589,1.589,0,0,0,0-2.246l-2.556-2.556a1.586,1.586,0,0,0-2.246,0l-2.244,2.242V67.588A1.588,1.588,0,0,0,329.882,66h-4.764a1.588,1.588,0,0,0-1.589,1.588v3.155L321.288,68.5a1.587,1.587,0,0,0-2.246,0l-2.557,2.555a1.59,1.59,0,0,0,0,2.247l2.226,2.226h-3.123A1.589,1.589,0,0,0,314,77.118v4.764a1.589,1.589,0,0,0,1.588,1.589H318.7l-2.245,2.244a1.589,1.589,0,0,0,0,2.246l2.556,2.556a1.59,1.59,0,0,0,2.246,0l2.269-2.268v3.162A1.588,1.588,0,0,0,325.118,93h4.764a1.588,1.588,0,0,0,1.589-1.588v-3.15l2.264,2.265a1.589,1.589,0,0,0,2.246,0l2.558-2.558a1.589,1.589,0,0,0,0-2.246l-2.254-2.252h3.127A1.589,1.589,0,0,0,341,81.882V77.118A1.589,1.589,0,0,0,339.412,75.529ZM327.5,87a7.5,7.5,0,1,1,7.5-7.5A7.5,7.5,0,0,1,327.5,87Z" transform="translate(-314 -66)" fill="#fff"/>
    </symbol>
    <symbol id="dots"
        xmlns="http://www.w3.org/2000/svg" viewBox="0 0 30 8">
        <g id="Group_33" data-name="Group 33" transform="translate(-455.5 -182)">
            <circle id="Ellipse_4" data-name="Ellipse 4" cx="4" cy="4" r="4" transform="translate(477.5 182)" fill="#fff"/>
            <circle id="Ellipse_5" data-name="Ellipse 5" cx="4" cy="4" r="4" transform="translate(466.5 182)" fill="#fff"/>
            <circle id="Ellipse_6" data-name="Ellipse 6" cx="4" cy="4" r="4" transform="translate(455.5 182)" fill="#fff"/>
        </g>
    </symbol>



    <!-- Social -->
    <symbol id="youtube"
        xmlns="http://www.w3.org/2000/svg"
        xmlns:xlink="http://www.w3.org/1999/xlink" viewBox="0 0 29.243 29.243">
        <defs>
            <linearGradient id="youtube-gradient" x1="0.854" y1="0.146" x2="0.146" y2="0.854" gradientUnits="objectBoundingBox">
                <stop offset="0" stop-color="red"/>
                <stop offset="1" stop-color="#9a0000"/>
            </linearGradient>
        </defs>
        <g id="Group_19" data-name="Group 19" transform="translate(-650.113 -2573.934)">
            <circle id="Ellipse_2" data-name="Ellipse 2" cx="14.621" cy="14.621" r="14.621" transform="translate(650.113 2573.934)" fill="url(#youtube-gradient)"/>
            <path id="Path_7" data-name="Path 7" d="M672.563,2586.43a3.511,3.511,0,0,0-3.511-3.511h-8.978a3.511,3.511,0,0,0-3.511,3.511v4.178a3.511,3.511,0,0,0,3.511,3.511h8.978a3.511,3.511,0,0,0,3.511-3.511Zm-5.28,2.4-4.026,1.991c-.158.086-.694-.028-.694-.208v-4.088c0-.182.54-.3.7-.206l3.854,2.1C667.277,2588.509,667.446,2588.743,667.283,2588.832Z" fill="#fff"/>
        </g>
    </symbol>
    <symbol id="twitter"
        xmlns="http://www.w3.org/2000/svg"
        xmlns:xlink="http://www.w3.org/1999/xlink" viewBox="0 0 29.243 29.243">
        <defs>
            <linearGradient id="twitter-gradient" x1="0.854" y1="0.146" x2="0.146" y2="0.854" gradientUnits="objectBoundingBox">
                <stop offset="0" stop-color="#00cbff"/>
                <stop offset="1" stop-color="#0080ff"/>
            </linearGradient>
        </defs>
        <g id="Group_18" data-name="Group 18" transform="translate(-609.957 -2573.934)">
            <circle id="Ellipse_1" data-name="Ellipse 1" cx="14.621" cy="14.621" r="14.621" transform="translate(609.957 2573.934)" fill="url(#twitter-gradient)"/>
            <path id="Path_6" data-name="Path 6" d="M632.657,2583.546a6.611,6.611,0,0,1-1.613.46c.259-.044.64-.514.793-.7a2.959,2.959,0,0,0,.535-.977c.014-.027.024-.062,0-.083a.093.093,0,0,0-.086.007,8.193,8.193,0,0,1-1.912.731.127.127,0,0,1-.132-.035,1.508,1.508,0,0,0-.167-.17,3.361,3.361,0,0,0-.926-.568,3.224,3.224,0,0,0-1.421-.229,3.406,3.406,0,0,0-1.348.381,3.48,3.48,0,0,0-1.087.888,3.338,3.338,0,0,0-.649,1.3,3.507,3.507,0,0,0-.034,1.373c.01.077,0,.088-.066.077a10.214,10.214,0,0,1-6.571-3.344c-.076-.087-.118-.087-.181.007a3.331,3.331,0,0,0,.568,3.936c.129.122.261.244.4.355a3.345,3.345,0,0,1-1.268-.355c-.077-.048-.115-.021-.122.066a2.035,2.035,0,0,0,.021.377,3.369,3.369,0,0,0,2.076,2.686,2,2,0,0,0,.422.128,3.75,3.75,0,0,1-1.244.039c-.091-.018-.125.028-.091.115a3.5,3.5,0,0,0,2.613,2.188c.118.02.237.02.356.048-.007.011-.015.011-.021.021a4.152,4.152,0,0,1-1.785.946,6.4,6.4,0,0,1-2.709.347c-.146-.022-.177-.02-.216,0s-.005.059.042.1c.184.122.372.23.564.334a8.921,8.921,0,0,0,1.811.725,9.65,9.65,0,0,0,9.367-2.19,9.829,9.829,0,0,0,2.592-7.17c0-.1.122-.16.194-.215a6.359,6.359,0,0,0,1.275-1.325.407.407,0,0,0,.084-.254v-.014C632.722,2583.5,632.721,2583.516,632.657,2583.546Z" fill="#fff"/>
        </g>
    </symbol>
    <symbol id="instagram"
        xmlns="http://www.w3.org/2000/svg"
        xmlns:xlink="http://www.w3.org/1999/xlink" viewBox="0 0 29.243 29.243">
        <defs>
            <linearGradient id="insta-gradient" x1="0.854" y1="0.146" x2="0.146" y2="0.854" gradientUnits="objectBoundingBox">
                <stop offset="0.001" stop-color="#ffe084"/>
                <stop offset="0.209" stop-color="#ffba36"/>
                <stop offset="0.376" stop-color="#ff5176"/>
                <stop offset="0.524" stop-color="#f53394"/>
                <stop offset="0.739" stop-color="#a336d1"/>
                <stop offset="1" stop-color="#5f4eec"/>
            </linearGradient>
        </defs>
        <g id="Group_22" data-name="Group 22" transform="translate(-569.8 -2573.934)">
            <circle id="Ellipse_3" data-name="Ellipse 3" cx="14.621" cy="14.621" r="14.621" transform="translate(569.8 2573.934)" fill="url(#insta-gradient)"/>
            <g id="Group_21" data-name="Group 21">
                <g id="Group_20" data-name="Group 20">
                    <path id="Path_8" data-name="Path 8" d="M588.96,2583.024a1.005,1.005,0,1,0,1.005,1.005A1.005,1.005,0,0,0,588.96,2583.024Z" fill="#fff"/>
                    <path id="Path_9" data-name="Path 9" d="M584.492,2584.313a4.222,4.222,0,1,0,4.222,4.222A4.227,4.227,0,0,0,584.492,2584.313Zm0,6.927a2.7,2.7,0,1,1,2.7-2.705A2.708,2.708,0,0,1,584.492,2591.24Z" fill="#fff"/>
                    <path id="Path_10" data-name="Path 10" d="M587.844,2597.107H581a5.155,5.155,0,0,1-5.149-5.149v-6.845a5.155,5.155,0,0,1,5.149-5.15h6.845a5.156,5.156,0,0,1,5.15,5.15v6.845A5.156,5.156,0,0,1,587.844,2597.107ZM581,2581.576a3.541,3.541,0,0,0-3.536,3.537v6.845a3.54,3.54,0,0,0,3.536,3.536h6.845a3.54,3.54,0,0,0,3.537-3.536v-6.845a3.542,3.542,0,0,0-3.537-3.537Z" fill="#fff"/>
                </g>
            </g>
        </g>
    </symbol>
    <symbol id="facebook"
        xmlns="http://www.w3.org/2000/svg"
        xmlns:xlink="http://www.w3.org/1999/xlink" viewBox="0 0 29.243 29.243">
        <defs>
            <linearGradient id="facebook-gradient" x1="0.146" y1="0.147" x2="0.854" y2="0.859" gradientUnits="objectBoundingBox">
                <stop offset="0" stop-color="#1677f1"/>
                <stop offset="0.175" stop-color="#176ee8"/>
                <stop offset="0.46" stop-color="#1d55d3"/>
                <stop offset="0.818" stop-color="#252eaf"/>
                <stop offset="1" stop-color="#2b189b"/>
            </linearGradient>
        </defs>
        <g id="Group_24" data-name="Group 24" transform="translate(-529.644 -2573.934)">
            <g id="Group_23" data-name="Group 23">
                <path id="Path_11" data-name="Path 11" d="M558.887,2588.556A14.622,14.622,0,1,0,541.981,2603v-10.217h-3.713v-4.226h3.713v-3.222c0-3.664,2.183-5.688,5.522-5.688a22.53,22.53,0,0,1,3.273.285v3.6h-1.843a2.113,2.113,0,0,0-2.383,2.283v2.743H550.6l-.648,4.226H546.55V2603A14.624,14.624,0,0,0,558.887,2588.556Z" fill="url(#facebook-gradient)"/>
                <path id="Path_12" data-name="Path 12" d="M549.957,2592.782l.648-4.226H546.55v-2.743a2.113,2.113,0,0,1,2.383-2.283h1.843v-3.6a22.53,22.53,0,0,0-3.273-.285c-3.339,0-5.522,2.024-5.522,5.688v3.222h-3.713v4.226h3.713V2603a14.751,14.751,0,0,0,4.569,0v-10.217Z" fill="#fff"/>
            </g>
        </g>
    </symbol>
</svg>