<svg xmlns="http://www.w3.org/2000/svg"
    xmlns:xlink="http://www.w3.org/1999/xlink" viewBox="0 0 150.11 159.83">
    <defs>
        <style>.cls-1{isolation:isolate;}.cls-2{fill:#092b54;}.cls-3{fill:#fff;}.cls-4{fill:#27548f;}.cls-5{fill:#1d3b6b;}.cls-6{fill:#dddfe4;}.cls-7{fill:#6297d6;}.cls-8{fill:#ccc;mix-blend-mode:multiply;}.cls-11,.cls-9{fill:none;}.cls-9{stroke:#092b54;stroke-width:6.94px;}.cls-10{fill:url(#Sfumatura_senza_nome_3);}.cls-11{stroke:#fff;stroke-miterlimit:10;stroke-width:0.52px;}.cls-12{fill:#da222f;}</style>
        <linearGradient id="Sfumatura_senza_nome_3" x1="74.94" y1="107.27" x2="74.94" y2="83.24" gradientUnits="userSpaceOnUse">
            <stop offset="0.39" stop-color="#bdbcbc"/>
            <stop offset="0.48" stop-color="#c1c0c0"/>
            <stop offset="0.57" stop-color="#ccc"/>
            <stop offset="0.65" stop-color="#e0dfdf"/>
            <stop offset="0.73" stop-color="#fbfbfb"/>
            <stop offset="0.75" stop-color="#fff"/>
            <stop offset="0.83" stop-color="#c6c6c6"/>
            <stop offset="0.86" stop-color="#d8d8d8"/>
            <stop offset="0.89" stop-color="#ededed"/>
            <stop offset="0.92" stop-color="#fbfbfb"/>
            <stop offset="0.95" stop-color="#fff"/>
        </linearGradient>
    </defs>
    <g class="cls-1">
        <g id="Layer_2" data-name="Layer 2">
            <g id="Logo">
                <path class="cls-2" d="M43.15,139.27C54.25,147.06,77,159.83,77,159.83s22.77-12.77,33.87-20.56c12-8.41,18-18.53,20.46-36.62C132.74,92.22,138.41,41.3,139,36h0A179.17,179.17,0,0,0,15.05,36h0c.59,5.3,6.25,56.21,7.65,66.64C25.12,120.74,31.17,130.86,43.15,139.27Z"/>
                <path class="cls-2" d="M46.64,134.31c8.27,5.8,23.64,14.7,29.87,18.26l.51.3.52-.3c6.23-3.56,21.6-12.46,29.87-18.26,10.93-7.67,15.79-16.47,17.93-32.46,1.16-8.69,5.29-45.49,7-60.9l.09-.84-.8-.26a173.16,173.16,0,0,0-109.24,0l-.79.26.09.84c1.72,15.42,5.84,52.21,7,60.9C30.85,117.84,35.7,126.64,46.64,134.31Z"/>
                <path class="cls-3" d="M46,135.16C54.34,141,69.75,149.91,76,153.47l1,.59,1-.59c6.24-3.56,21.65-12.49,30-18.31,11.2-7.86,16.18-16.85,18.36-33.18,1.16-8.69,5.29-45.49,7-60.92l.19-1.67-1.6-.53a174.27,174.27,0,0,0-109.9,0l-1.59.53.19,1.67c1.72,15.43,5.84,52.23,7,60.92C29.86,118.31,34.84,127.3,46,135.16ZM77,32.05a171.17,171.17,0,0,1,54.3,8.78c-1.66,14.86-5.84,52.16-7,60.88-2.09,15.66-6.84,24.27-17.5,31.75-8.13,5.7-23,14.35-29.79,18.21-6.74-3.85-21.65-12.5-29.79-18.21-10.66-7.48-15.4-16.09-17.49-31.75-1.17-8.72-5.35-46-7-60.88A171.15,171.15,0,0,1,77,32.05Z"/>
                <polygon class="cls-3" points="78.43 136.96 77.02 132.65 75.62 136.96 71.09 136.96 74.75 139.63 73.36 143.94 77.02 141.27 80.69 143.94 79.29 139.63 82.96 136.96 78.43 136.96"/>
                <path class="cls-2" d="M74.36,58.74a31.93,31.93,0,0,0,18.54,6h1a32.17,32.17,0,0,0,7.59-1.18,31.65,31.65,0,0,0,21.85-39.07,31.3,31.3,0,0,0-11.92-17,31.9,31.9,0,0,0-18.53-6l-1,0A31.68,31.68,0,0,0,62.44,41.69,31.3,31.3,0,0,0,74.36,58.74Z"/>
                <path class="cls-3" d="M73.52,59.9A33.36,33.36,0,0,0,92.9,66.17H94a33.43,33.43,0,0,0,7.93-1.24A33.08,33.08,0,0,0,124.73,24.1,32.78,32.78,0,0,0,112.27,6.27,33.43,33.43,0,0,0,92.89,0l-1,0h0A33.08,33.08,0,0,0,73.52,59.9ZM84.68,4a30.34,30.34,0,0,1,7.25-1.13h0l1,0a30.39,30.39,0,0,1,17.7,5.73,30.21,30.21,0,0,1,8.68,39.25,30,30,0,0,1-18.16,14.33,30.34,30.34,0,0,1-7.25,1.13h-1a30.32,30.32,0,0,1-17.7-5.73A29.91,29.91,0,0,1,63.81,41.3,30.25,30.25,0,0,1,84.68,4Z"/>
                <path class="cls-2" d="M4.52,77.65a1,1,0,0,0,.92.54,1,1,0,0,0,.38-.07l67.29-27a1.06,1.06,0,0,0,.65-.87l2-20.62,2.67-12.34a1,1,0,0,0-.46-1.1,1,1,0,0,0-.56-.16,1.06,1.06,0,0,0-.63.21L22.56,57.94a1,1,0,0,0,.64,1.87,1,1,0,0,0,.46-.12l18.46-9.27L4.84,76.3A1,1,0,0,0,4.52,77.65Z"/>
                <path class="cls-3" d="M3.6,78.14a2.08,2.08,0,0,0,2.61,1l67.29-27a2.09,2.09,0,0,0,1.29-1.73l2-20.56,2.64-12.2a2.25,2.25,0,0,0,.07-.52A2.08,2.08,0,0,0,77.45,15h0a2,2,0,0,0-1.28.44L21.93,57.12a2.07,2.07,0,0,0,2.2,3.5L29.44,58,4.25,75.45A2.08,2.08,0,0,0,3.6,78.14ZM54.79,42.89,23.2,58.77,77.44,17.06h0l-2.67,12.4-2,20.68-67.28,27Z"/>
                <path class="cls-2" d="M55.92,66.9a1,1,0,0,0,1,.71l.23,0,31.2-7.05a1,1,0,0,0,.33-1.89l-5.17-3.3L76.1,49.28a1,1,0,0,0-.66-.24,1,1,0,0,0-.49.13L42.32,66.75a1,1,0,0,0,.49,2,1,1,0,0,0,.29,0l18.09-5.18-4.72,2.14A1,1,0,0,0,55.92,66.9Z"/>
                <path class="cls-3" d="M42.81,69.75a2,2,0,0,0,.58-.09l11.44-3.27a2.2,2.2,0,0,0,.1.84,2.09,2.09,0,0,0,2,1.42,2.4,2.4,0,0,0,.46-.05l31.2-7a2.09,2.09,0,0,0,.66-3.79L84.1,54.51l-7.34-6A2.09,2.09,0,0,0,75.44,48a2.05,2.05,0,0,0-1,.25L41.83,65.83a2.09,2.09,0,0,0,1,3.92ZM75.44,50.08l7.43,6.11,5.23,3.34-31.2,7,17.61-8-31.7,9.07Z"/>
                <polygon class="cls-4" points="26.16 66.13 67.25 47.39 65.22 39.81 26.16 66.13"/>
                <polygon class="cls-4" points="60.05 60.75 74.64 56.22 73.61 54.26 60.05 60.75"/>
                <polygon class="cls-4" points="46.42 44.6 65.31 34.34 65.5 30.69 46.42 44.6"/>
                <circle class="cls-3" cx="92.84" cy="33.14" r="27.81" transform="translate(59.3 125.84) rotate(-89.75)"/>
                <path class="cls-5" d="M81.06,53.93a29.37,29.37,0,0,0,10.27.38l.2,0a1.3,1.3,0,0,0,.92-1c.55-3,1-5.9,1.39-8.25a1.27,1.27,0,0,0-.71-1.35,54.55,54.55,0,0,1-8.92-5.28,1.3,1.3,0,0,0-1.14-.23,1.2,1.2,0,0,0-.41.2c-2,1.47-5.34,4-6.68,5a1.3,1.3,0,0,0-.44,1.46,28.34,28.34,0,0,0,4.87,8.75A1.34,1.34,0,0,0,81.06,53.93Z"/>
                <path class="cls-5" d="M78.29,23.4c1.45,1.11,2.95,2.24,4.49,3.45a1.34,1.34,0,0,0,1.16.22,1.23,1.23,0,0,0,.35-.16,63.65,63.65,0,0,1,9.27-5,1.32,1.32,0,0,0,.76-1.38c-.4-2.8-.77-5.34-1.26-8a1.32,1.32,0,0,0-1-1,29.31,29.31,0,0,0-10.21,0l-.1,0a1.37,1.37,0,0,0-.56.32,23.72,23.72,0,0,0-5.32,8.67,1.3,1.3,0,0,0,.45,1.43Z"/>
                <path class="cls-5" d="M103.77,39.47c2.08.87,5.07,2.18,7.28,3.17a1.28,1.28,0,0,0,.88.07,1.34,1.34,0,0,0,.67-.44,30.36,30.36,0,0,0,4.88-8.57,1.27,1.27,0,0,0,0-.9A36.07,36.07,0,0,0,112.94,24a1.29,1.29,0,0,0-1.4-.49l-.09,0c-2.34.85-6,2.32-7.54,2.91a1.29,1.29,0,0,0-.8,1.29A65.14,65.14,0,0,1,103,38.17,1.29,1.29,0,0,0,103.77,39.47Z"/>
                <path class="cls-5" d="M68.43,26.59a6,6,0,0,1-1.71-3,27.69,27.69,0,0,0-.64,17.09c.11.39.23.76.35,1.14a6,6,0,0,1,1.91-3.28A.53.53,0,0,0,68.5,38a23.93,23.93,0,0,1,.1-10.89A.53.53,0,0,0,68.43,26.59Z"/>
                <path class="cls-5" d="M101.2,9.09a27.83,27.83,0,0,1,9.34,5.62.47.47,0,0,0,.48.11,4.08,4.08,0,0,1,3,.24A27.92,27.92,0,0,0,98.86,6a5.44,5.44,0,0,1,2,2.79A.5.5,0,0,0,101.2,9.09Z"/>
                <path class="cls-5" d="M113.56,51.69a5.23,5.23,0,0,1-3,0,.44.44,0,0,0-.44.07,33.22,33.22,0,0,1-9.69,5.41.44.44,0,0,0-.25.25,8,8,0,0,1-2.23,3.08q1.25-.23,2.49-.57A27.63,27.63,0,0,0,113.56,51.69Z"/>
                <path class="cls-5" d="M68.42,28.31a29.36,29.36,0,0,1,8.76-6.81.8.8,0,1,0-.72-1.43,31,31,0,0,0-9.25,7.19.8.8,0,0,0,.08,1.13.81.81,0,0,0,.55.2A.8.8,0,0,0,68.42,28.31Z"/>
                <path class="cls-5" d="M76,45.07a.87.87,0,0,0,.32.06.81.81,0,0,0,.72-.51.8.8,0,0,0-.45-1,22.18,22.18,0,0,1-8.54-7.18.8.8,0,0,0-1.37.84A23.3,23.3,0,0,0,76,45.07Z"/>
                <path class="cls-5" d="M83.89,25.31a.79.79,0,0,0-1,.6,40.19,40.19,0,0,0-.17,13.78.82.82,0,0,0,.82.68h.1a.8.8,0,0,0,.67-.92,38.5,38.5,0,0,1,.14-13.18A.79.79,0,0,0,83.89,25.31Z"/>
                <path class="cls-5" d="M78.75,57.9a.78.78,0,0,0,.66-.39l.61-1c.6-1,1.34-2.25,2-3.31a.8.8,0,0,0-.28-1.1.81.81,0,0,0-1.1.28c-.62,1.06-1.36,2.3-2,3.31l-.6,1a.8.8,0,0,0,.28,1.1A.73.73,0,0,0,78.75,57.9Z"/>
                <path class="cls-5" d="M92,45.8a.71.71,0,0,0,.28-.06,63.1,63.1,0,0,0,12.54-6.92.8.8,0,0,0-.95-1.29,61.47,61.47,0,0,1-12.2,6.73A.8.8,0,0,0,92,45.8Z"/>
                <path class="cls-5" d="M101.48,58.38h.11a.8.8,0,0,0,.06-1.59,21.69,21.69,0,0,1-9.78-4.09.81.81,0,0,0-1.13.13A.79.79,0,0,0,90.86,54,23.25,23.25,0,0,0,101.48,58.38Z"/>
                <path class="cls-5" d="M109.46,53.76a.86.86,0,0,0,.41.1.79.79,0,0,0,.67-.42,21.53,21.53,0,0,0,2-12,.8.8,0,0,0-.89-.7.82.82,0,0,0-.7.9,20,20,0,0,1-1.8,11A.8.8,0,0,0,109.46,53.76Z"/>
                <path class="cls-5" d="M103.77,28.31a.81.81,0,0,0,1.13-.11.8.8,0,0,0-.1-1.13,54.88,54.88,0,0,0-11.34-7,.8.8,0,1,0-.68,1.45A52.58,52.58,0,0,1,103.77,28.31Z"/>
                <path class="cls-5" d="M91.69,13.41a.86.86,0,0,0,.41-.13,20.63,20.63,0,0,1,10.66-3.57.81.81,0,0,0,0-1.61,22.3,22.3,0,0,0-11.51,3.84.8.8,0,0,0,.46,1.47Z"/>
                <path class="cls-5" d="M112,25.61h.08a.81.81,0,0,0,.78-.75,32.36,32.36,0,0,0-2-12.29.8.8,0,0,0-1-.49.81.81,0,0,0-.49,1,30.57,30.57,0,0,1,1.86,11.64A.8.8,0,0,0,112,25.61Z"/>
                <path class="cls-5" d="M82.54,14.14a.76.76,0,0,0,.38-.11.8.8,0,0,0,.28-1.1,54.21,54.21,0,0,0-3-4.67A.8.8,0,0,0,79,8.09a.79.79,0,0,0-.17,1.12,53.6,53.6,0,0,1,3,4.54A.81.81,0,0,0,82.54,14.14Z"/>
                <path class="cls-5" d="M120.61,34.25h.08a.8.8,0,0,0,0-1.6l-4-.24a.83.83,0,0,0-.85.76.8.8,0,0,0,.76.84Z"/>
                <path class="cls-5" d="M68.14,25.48a6,6,0,0,1-.91-2l-.44-1.64-.58,1.6a28.12,28.12,0,0,0-.66,17.42c.11.39.24.77.36,1.16l.66,2L67,42a5.11,5.11,0,0,1,1-2.18,25,25,0,0,0,7.2,5.51,30.2,30.2,0,0,0,4.3,8l-1.88,3.17A1.35,1.35,0,0,0,78,58.27a1.41,1.41,0,0,0,.72.19,1.33,1.33,0,0,0,1.11-.66l1.88-3.16a27.65,27.65,0,0,0,6.4.47c1,0,2-.11,3-.23A25.11,25.11,0,0,0,99,58.47a8.07,8.07,0,0,1-1.44,1.63L96.1,61.38,98,61c.9-.17,1.73-.36,2.53-.59a28.26,28.26,0,0,0,13.41-8.37l1.22-1.37-1.76.5a5.07,5.07,0,0,1-1.22.18H112a23.43,23.43,0,0,0,1.14-9,30.86,30.86,0,0,0,4.54-7.8l2.88.17h.12a1.34,1.34,0,0,0,0-2.67l-3-.17a35,35,0,0,0-4.23-8.13,31.67,31.67,0,0,0-1.15-8.62,4.5,4.5,0,0,1,1.45.36l2,.8-1.41-1.64A28.58,28.58,0,0,0,99,5.48l-2.45-.54,2,1.5a5.21,5.21,0,0,1,1.36,1.42,23.29,23.29,0,0,0-8,3.06,32.59,32.59,0,0,0-6.34-.42,25.36,25.36,0,0,0-3,.28c-.65-1-1.28-1.95-1.91-2.82a1.36,1.36,0,0,0-1.13-.54,1.33,1.33,0,0,0-.74.26,1.33,1.33,0,0,0-.29,1.86c.57.77,1.13,1.6,1.72,2.52a24.56,24.56,0,0,0-4.75,8A31.69,31.69,0,0,0,68.14,25.48ZM108.85,52a32.56,32.56,0,0,1-7.54,4.18A21.85,21.85,0,0,1,93,52.93c.5-2.73.93-5.3,1.26-7.46a65.62,65.62,0,0,0,9.6-5.34c1.95.83,4.58,2,6.6,2.88A19.83,19.83,0,0,1,108.85,52Zm-6.34-41.77h.11a27.47,27.47,0,0,1,6.64,4.06,31.21,31.21,0,0,1,1.53,8.88c-2.19.8-5.25,2-6.75,2.61a57.18,57.18,0,0,0-9.25-5.68c-.35-2.39-.69-4.74-1.12-7.15A19.34,19.34,0,0,1,102.51,10.27ZM84.85,27.2a61.34,61.34,0,0,1,8.7-4.7,53.6,53.6,0,0,1,9,5.56,64.15,64.15,0,0,1-.11,9.81,62.9,62.9,0,0,1-9.37,5.21,55.14,55.14,0,0,1-8.4-5A38.62,38.62,0,0,1,84.85,27.2ZM78,23.85q2,1.54,4.21,3.22A41.27,41.27,0,0,0,82,38.17c-1.89,1.39-4.69,3.5-6.08,4.54a22.82,22.82,0,0,1-7.22-6.24,24.47,24.47,0,0,1,.08-7.78h0a29.38,29.38,0,0,1,7.49-6.09Z"/>
                <path class="cls-6" d="M103.84,39.52a64.39,64.39,0,0,1-10,5.58c-.35,2.31-.82,5.1-1.37,8.07a22.27,22.27,0,0,0,8.93,3.6,32.93,32.93,0,0,0,7.89-4.38A20.08,20.08,0,0,0,111,42.66C108.84,41.67,105.9,40.39,103.84,39.52Zm4.59,12.17a31.91,31.91,0,0,1-7.19,4,21.58,21.58,0,0,1-7.61-3c.45-2.48.84-4.82,1.16-6.83a66.25,66.25,0,0,0,9.17-5.1c1.81.77,4.13,1.78,6,2.62A19.24,19.24,0,0,1,108.43,51.69Z"/>
                <path class="cls-6" d="M68.24,24.64a5.88,5.88,0,0,1-.5-1.28l-.87-3.29-1.16,3.19A28.65,28.65,0,0,0,65,41c.12.43.25.84.36,1.18l1.32,4,.75-4.15A4.42,4.42,0,0,1,68,40.63a25.72,25.72,0,0,0,6.7,5,31.8,31.8,0,0,0,4.08,7.64L77.8,55l-.09.15-.61,1A1.87,1.87,0,0,0,78.77,59a1.86,1.86,0,0,0,1.55-.92l.61-1L82,55.24a28.83,28.83,0,0,0,6.16.4c.93,0,1.9-.1,2.87-.2a26.1,26.1,0,0,0,7.06,3.34,8.63,8.63,0,0,1-.9.92l-2.88,2.56,3.78-.71a26,26,0,0,0,2.59-.6,28.75,28.75,0,0,0,13.66-8.53l2.44-2.72-3.52,1a4.31,4.31,0,0,1-.49.11,24.38,24.38,0,0,0,.92-8.19,32,32,0,0,0,4.36-7.41l2.49.14a1,1,0,0,0,.17,0,1.87,1.87,0,0,0,0-3.73l-2.69-.16A35,35,0,0,0,114,23.67a31.45,31.45,0,0,0-1-7.79,4.91,4.91,0,0,1,.53.19l4,1.6-2.82-3.29A29.18,29.18,0,0,0,99.07,5L94.18,3.87l4,3a6.54,6.54,0,0,1,.72.64,24.43,24.43,0,0,0-7.16,2.86A32.6,32.6,0,0,0,85.51,10a25.65,25.65,0,0,0-2.76.23c-.59-.92-1.17-1.76-1.75-2.55a1.89,1.89,0,0,0-1.57-.77,1.91,1.91,0,0,0-1.05.37,1.87,1.87,0,0,0-.74,1.22A1.82,1.82,0,0,0,78,9.86c.49.67,1,1.38,1.48,2.15A25.41,25.41,0,0,0,75,19.68,32.19,32.19,0,0,0,68.24,24.64ZM80.8,12.13c-.65-1.05-1.29-2-2-2.9A.81.81,0,0,1,79,8.11.88.88,0,0,1,79.46,8a.79.79,0,0,1,.67.33c.71,1,1.39,2,2.09,3.08A23.79,23.79,0,0,1,85.55,11a31.36,31.36,0,0,1,6.42.44,22.93,22.93,0,0,1,8.73-3.21A5.54,5.54,0,0,0,98.84,6,27.89,27.89,0,0,1,114,15.07a4.87,4.87,0,0,0-1.94-.4l-.4,0a31.56,31.56,0,0,1,1.31,9.3,35,35,0,0,1,4.4,8.47l3.37.19a.81.81,0,0,1,0,1.61h-.07l-3.27-.18a30.48,30.48,0,0,1-4.73,8.19,22.63,22.63,0,0,1-1.33,9.6,5.68,5.68,0,0,0,.93.05,6.23,6.23,0,0,0,1.34-.21,27.7,27.7,0,0,1-13.15,8.21,24.87,24.87,0,0,1-2.49.58,8.31,8.31,0,0,0,1.9-2.38,24.59,24.59,0,0,1-8.49-3.79c-1.09.13-2.15.21-3.19.25A27.83,27.83,0,0,1,81.47,54L80,56.51l-.61,1a.8.8,0,0,1-.66.39.78.78,0,0,1-.44-.11.81.81,0,0,1-.28-1.1l.61-1c.44-.75,1-1.63,1.46-2.47a29.06,29.06,0,0,1-4.53-8.32A24.58,24.58,0,0,1,67.94,39a5.86,5.86,0,0,0-1.52,2.9c-.12-.38-.24-.75-.35-1.14a27.62,27.62,0,0,1,.64-17.09,6.09,6.09,0,0,0,1.4,2.65,31.2,31.2,0,0,1,7.71-5.86A23.73,23.73,0,0,1,80.8,12.13Z"/>
                <path class="cls-6" d="M104,26.42c1.49-.59,5-2,7.37-2.85a31.08,31.08,0,0,0-1.6-9.56,28.13,28.13,0,0,0-7-4.28h-.23a20.38,20.38,0,0,0-9.43,3c.47,2.58.84,5.06,1.23,7.78A55.6,55.6,0,0,1,104,26.42ZM102.52,10.8a26.93,26.93,0,0,1,6.28,3.83,31.29,31.29,0,0,1,1.45,8.2c-2,.75-4.64,1.78-6.13,2.37a56.32,56.32,0,0,0-8.85-5.42c-.31-2.18-.63-4.33-1-6.52A18.82,18.82,0,0,1,102.52,10.8Z"/>
                <path class="cls-6" d="M68.3,28.42a24.93,24.93,0,0,0-.09,8.25A22.91,22.91,0,0,0,76,43.34c1.35-1,4.59-3.46,6.58-4.93a41.09,41.09,0,0,1,.16-11.57c-1.53-1.19-3-2.32-4.47-3.42L76.35,22a29.44,29.44,0,0,0-7.95,6.37A.28.28,0,0,1,68.3,28.42Zm1,.51a28.79,28.79,0,0,1,7-5.7l1.37,1,4,3a42.5,42.5,0,0,0-.13,10.62c-1.76,1.3-4.17,3.12-5.56,4.16a22.3,22.3,0,0,1-6.66-5.82A23.72,23.72,0,0,1,69.3,28.93Z"/>
                <path class="cls-6" d="M84.2,38.4a54.59,54.59,0,0,0,8.89,5.27,63.06,63.06,0,0,0,9.89-5.5,65.3,65.3,0,0,0,.12-10.38,53.11,53.11,0,0,0-9.54-5.88h0a62.7,62.7,0,0,0-9.17,4.95A38.94,38.94,0,0,0,84.2,38.4Zm1.14-10.88a61.17,61.17,0,0,1,8.2-4.43,52.89,52.89,0,0,1,8.52,5.25,63.09,63.09,0,0,1-.1,9.23,62.14,62.14,0,0,1-8.85,4.92,55,55,0,0,1-7.91-4.67A38.58,38.58,0,0,1,85.34,27.52Z"/>
                <path class="cls-7" d="M91.63,12.54a31.27,31.27,0,0,0-6.06-.41,20.64,20.64,0,0,0-3.58.39.2.2,0,0,0-.12.06,22.38,22.38,0,0,0-5.05,8.24.22.22,0,0,0,.08.25l2,1.51,3.8,2.9s-2.65-3.11-4.42-4.9a21,21,0,0,1,4.43-7.06A69.18,69.18,0,0,1,91.63,12.54Z"/>
                <path class="cls-7" d="M92.28,44.49a55.12,55.12,0,0,1-8.74-5.22.3.3,0,0,0-.16-.05h0a.09.09,0,0,0-.07,0c-2,1.46-5.32,4-6.66,5a.21.21,0,0,0-.08.24,33,33,0,0,0,2.79,5.88s-.85-3.43-1.46-5.54c1.41-1.06,3.82-2.86,5.62-4.19C86,42.05,92.28,44.49,92.28,44.49Z"/>
                <path class="cls-7" d="M104.17,38.53c1.41.6,3.24,1.39,5,2.15,0,0-2.23-1.55-4.1-2.82a64.5,64.5,0,0,0,.5-9.4,44.19,44.19,0,0,0,6-2.8c1.3,1.58,3.65,4.27,3.65,4.27a45.33,45.33,0,0,0-3.19-5.29.26.26,0,0,0-.19-.09h-.08c-2.32.84-6,2.3-7.49,2.89a.2.2,0,0,0-.13.22A67.27,67.27,0,0,1,104,38.31.2.2,0,0,0,104.17,38.53Z"/>
                <path class="cls-7" d="M66.54,26.28A21.66,21.66,0,0,0,66.78,37a21.24,21.24,0,0,1,.56-9.56A4,4,0,0,1,66.54,26.28Z"/>
                <path class="cls-7" d="M101.21,7.52a5.28,5.28,0,0,1,.62,1,26.77,26.77,0,0,1,6.31,2.89A25.52,25.52,0,0,0,101.21,7.52Z"/>
                <path class="cls-8" d="M79.64,49.44a31.07,31.07,0,0,1-10.07-1.31,27.81,27.81,0,1,0,39.6-37.66,31.49,31.49,0,0,1-29.53,39Z"/>
                <polygon class="cls-3" points="118.06 31.44 120.26 31.56 118.19 30.99 118.06 31.44"/>
                <path class="cls-3" d="M113,15.88a4.91,4.91,0,0,0,.37.46l1.41.22S113.49,16,113,15.88Z"/>
                <path class="cls-3" d="M104.17,41.46l4,1.09L104,40.74q-2.13,1.44-4.36,2.69c-.74.42-1.5.82-2.26,1.2l-1.14.56-1.15.53-.24.15,0,.19-1.14,6.61A21.55,21.55,0,0,0,97,54.4c-1-.71-2.09-1.58-2.71-2.09L96,46.76A63.63,63.63,0,0,0,104.17,41.46Z"/>
                <path class="cls-3" d="M118.54,31.47a36.15,36.15,0,0,0-3.39-8,31.8,31.8,0,0,0-1.55-7.42l-.57-.2a31.45,31.45,0,0,1,1,7.79,35,35,0,0,1,4.06,7.77Z"/>
                <path class="cls-3" d="M114.71,42.88a29.31,29.31,0,0,0,3.34-7.74,31.6,31.6,0,0,1-4.35,7.41,24.67,24.67,0,0,1-.93,8.24A17.59,17.59,0,0,0,114.71,42.88Z"/>
                <path class="cls-3" d="M90.89,56.35a15.89,15.89,0,0,0,3.77,1.14,23.55,23.55,0,0,1-3.62-2c-1,.1-1.94.17-2.88.2a28.78,28.78,0,0,1-6.15-.4L80.07,58.5l2.23-2.35A31.92,31.92,0,0,0,90.89,56.35Z"/>
                <path class="cls-3" d="M78.79,53.32a31.8,31.8,0,0,1-4.08-7.64,25.72,25.72,0,0,1-6.7-5,4.42,4.42,0,0,0-.54,1.42l-.26,1.44-.42,2.56,1.67-3.5a26,26,0,0,0,5.41,3.89,27.43,27.43,0,0,0,4.19,7.11L77.21,56Z"/>
                <path class="cls-2" d="M74.64,58.36a31.07,31.07,0,0,0,26.73,4.72,31.15,31.15,0,0,0,21.52-38.46,30.85,30.85,0,0,0-11.74-16.8A31.31,31.31,0,0,0,91.9,1.93h0a31.18,31.18,0,0,0-29,39.63A30.85,30.85,0,0,0,74.64,58.36Zm10.71-52A27.76,27.76,0,1,1,100.44,59.8a28.57,28.57,0,0,1-6.66,1A27.76,27.76,0,0,1,85.35,6.38Z"/>
                <path class="cls-2" d="M137.42,117.44l12.69-6.52L132.7,78.32l-109.91-.4-17,32,12.78,7.51c18.9-5.3,43.47-6.58,59.44-6.58S118.52,112.14,137.42,117.44Z"/>
                <path class="cls-9" d="M22,76.28c0,2,0,4,0,6.07-2.32.11-4.64.22-7,.35,0-.76,0-1.52,0-2.27-1.53.06-3,.14-4.58.21,0,1.26,0,2.51,0,3.77,2.4-.16,4.79-.3,7.18-.44,1.45,1.43,2.9,2.85,4.35,4.24l0,11.3q-1.87,2.43-3.75,4.94-5.5.73-11,1.59c-1.24-1.38-2.49-2.78-3.73-4.2,0-2.17,0-4.35,0-6.52q3.47-.41,7-.77v2.31l4.57-.5c0-1.24,0-2.47,0-3.7q-3.9.36-7.79.76C6,92,4.73,90.51,3.48,89q0-6.08,0-12.15Q5.37,74.38,7.25,72c3.68-.06,7.36-.1,11-.15C19.54,73.35,20.78,74.82,22,76.28Z"/>
                <path class="cls-9" d="M46.11,75.79q0,10.86-.07,21.73c-1.26,1.46-2.52,3-3.78,4.45q-5.53.42-11.06,1-1.86-2-3.72-4,0-11.42.08-22.81,1.88-2.23,3.75-4.42c3.68,0,7.37-.07,11.05-.09C43.61,73,44.86,74.41,46.11,75.79Zm-7,3.77-4.59.13q0,7.47,0,14.94c1.53-.11,3.06-.22,4.59-.31Q39.08,86.94,39.1,79.56Z"/>
                <path class="cls-9" d="M70.21,75.59V81.1l-7,.05v-2l-4.59.05,0,14.24c1.53,0,3.07-.08,4.6-.12v-2l7-.09V96.7l-3.78,4.12c-3.69.08-7.39.19-11.09.36l-3.74-4,.06-21.51c1.25-1.4,2.5-2.78,3.75-4.16l11.05,0Q68.34,73.55,70.21,75.59Z"/>
                <path class="cls-9" d="M94.32,75.67c0,1.87,0,3.73,0,5.59-2.33,0-4.67-.08-7-.1v-2l-4.59,0q0,7.07,0,14.14c1.53,0,3.07,0,4.6.08v-2c2.33,0,4.67.11,7,.18,0,1.87,0,3.73,0,5.59l-3.76,4q-5.55-.19-11.1-.26C78.26,99.4,77,98,75.76,96.68q0-10.55,0-21.1,1.88-2,3.74-4.06l11.06,0Z"/>
                <path class="cls-9" d="M119.7,71.73q0,5.13,0,10.26c-2.33-.1-4.65-.18-7-.26V79.61l-4.59-.12c0,1.14,0,2.27,0,3.41l4.59.16,0,7.94-4.6-.25c0,1.14,0,2.27,0,3.41,1.53.09,3.06.18,4.59.29,0-.71,0-1.41,0-2.12q3.49.21,7,.47l0,10.26q-9.93-1-19.88-1.6c0-2.58,0-5.15,0-7.73l1.31.06q0-7.23,0-14.46l-1.3,0c0-2.58,0-5.15,0-7.73Q109.78,71.64,119.7,71.73Z"/>
                <path class="cls-9" d="M141.34,72c1.24,1.58,2.49,3.2,3.74,4.83q0,4.51,0,9L142.46,89c.88,1.19,1.76,2.38,2.63,3.59,0,1.65,0,3.29,0,4.94l1.31.16c0,3,0,6,0,9q-4.12-.69-8.25-1.29,0-6.19,0-12.39l-4.58-.43c0,1.23,0,2.45,0,3.68l1.32.14c0,2.84,0,5.69,0,8.53q-4.78-.66-9.59-1.22,0-4.12,0-8.25l1.31.12q0-7.73,0-15.46l-1.32,0,0-8.25Q133.29,71.87,141.34,72Zm-7.79,12.07,4.58.27c0-1.25,0-2.49,0-3.74-1.52-.08-3.05-.15-4.58-.21C133.55,81.59,133.55,82.82,133.55,84.05Z"/>
                <path class="cls-10" d="M21.94,76.54c0,2,0,4,0,6.06l-7,.34V80.66l-4.58.19c0,1.27,0,2.54,0,3.8l7.19-.43q2.18,2.16,4.35,4.24,0,5.64,0,11.28-1.87,2.46-3.74,5-5.52.84-11,1.82c-1.24-1.37-2.49-2.77-3.73-4.2V95.74c2.32-.29,4.64-.58,7-.84v2.33l4.57-.56c0-1.24,0-2.48,0-3.72q-3.9.39-7.8.84Q5.26,91.6,3.38,89.33V77c1.25-1.67,2.51-3.3,3.76-4.89H18.21C19.45,73.59,20.7,75.08,21.94,76.54Z"/>
                <path class="cls-10" d="M46.07,76.18Q46,86.85,46,97.5c-1.26,1.45-2.53,2.92-3.79,4.41-3.69.32-7.39.69-11.07,1.11-1.24-1.29-2.49-2.59-3.73-3.91l.09-22.67C28.74,75,30,73.51,31.25,72.08H42.32Q44.2,74.15,46.07,76.18Zm-7,3.69q-2.29,0-4.59.12L34.4,94.75,39,94.41Z"/>
                <path class="cls-10" d="M70.2,76V81.4c-2.34,0-4.67,0-7,0v-2l-4.6,0,0,13.89c1.54,0,3.07-.09,4.61-.12v-2q3.51-.07,7-.11v5.37l-3.78,4c-3.71.08-7.41.22-11.12.41l-3.74-3.84q0-10.53.07-21,1.88-2,3.76-4H66.44Z"/>
                <path class="cls-10" d="M94.34,76.1c0,1.81,0,3.63,0,5.45l-7-.1c0-.66,0-1.31,0-2l-4.59,0q0,6.89,0,13.76c1.54,0,3.07.05,4.61.09v-2q3.51.08,7,.2c0,1.81,0,3.63,0,5.45l-3.77,3.84q-5.55-.22-11.11-.29l-3.76-4q0-10.26,0-20.52l3.75-4H90.57C91.83,73.41,93.08,74.75,94.34,76.1Z"/>
                <path class="cls-10" d="M119.76,72.08q0,5.08,0,10.17c-2.33-.09-4.65-.17-7-.24,0-.7,0-1.4,0-2.09l-4.6-.11c0,1.11,0,2.23,0,3.34l4.59.16,0,7.84-4.59-.27c0,1.12,0,2.24,0,3.35l4.6.32c0-.69,0-1.39,0-2.09q3.49.24,7,.52,0,5.08,0,10.18Q110,102,100,101.32l0-7.56,1.31.07q0-7.1-.05-14.17l-1.31,0q0-3.78,0-7.56Z"/>
                <path class="cls-10" d="M141.44,72.08q1.88,2.37,3.74,4.85V86.1c-.88,1.09-1.76,2.16-2.64,3.22q1.32,1.8,2.64,3.65v5l1.31.19v9.1q-4.11-.8-8.24-1.48,0-6.26,0-12.5c-1.53-.16-3.05-.32-4.58-.46,0,1.23,0,2.46,0,3.69l1.32.15c0,2.86,0,5.73,0,8.59q-4.8-.77-9.6-1.41l0-8.22,1.32.14q0-7.72,0-15.43l-1.32,0,0-8.21Zm-7.8,12.22,4.58.27c0-1.26,0-2.52,0-3.78l-4.58-.19C133.63,81.84,133.63,83.07,133.64,84.3Z"/>
                <path class="cls-11" d="M22,76.54c0,2,0,4,0,6l-7,.34c0-.76,0-1.52,0-2.28l-4.58.2c0,1.26,0,2.53,0,3.79l7.18-.43c1.45,1.44,2.9,2.84,4.35,4.23q0,5.63,0,11.27c-1.25,1.64-2.5,3.3-3.74,5q-5.51.81-11,1.79c-1.24-1.37-2.49-2.76-3.73-4.19V95.7q3.48-.45,7-.84c0,.78,0,1.55,0,2.33C12,97,13.49,96.81,15,96.64c0-1.24,0-2.48,0-3.71-2.6.25-5.2.53-7.79.82q-1.86-2.18-3.74-4.44V77C4.74,75.32,6,73.69,7.25,72.1l11.05,0C19.54,73.6,20.79,75.08,22,76.54Z"/>
                <path class="cls-11" d="M46.11,76.17q0,10.65-.07,21.32-1.89,2.17-3.78,4.41-5.53.46-11.06,1.1-1.86-1.94-3.72-3.92,0-11.33.08-22.64c1.26-1.48,2.51-2.93,3.76-4.37h11C43.62,73.45,44.87,74.81,46.11,76.17Zm-7,3.69q-2.3,0-4.59.12l-.06,14.76c1.53-.12,3.06-.24,4.59-.34Z"/>
                <path class="cls-11" d="M70.21,76v5.37l-7,.05v-2l-4.59,0,0,13.91,4.6-.13v-2c2.34,0,4.67-.08,7-.1v5.37q-1.89,2-3.78,4-5.55.12-11.09.41-1.87-1.92-3.74-3.85l.06-21,3.76-4h11Q68.33,74,70.21,76Z"/>
                <path class="cls-11" d="M94.31,76.08c0,1.82,0,3.64,0,5.46-2.33,0-4.67-.08-7-.1v-2l-4.6,0q0,6.88,0,13.78c1.53,0,3.07.05,4.6.09v-2c2.33.06,4.67.12,7,.2,0,1.82,0,3.64,0,5.46-1.25,1.28-2.51,2.56-3.76,3.85q-5.55-.22-11.1-.29-1.87-2-3.75-4,0-10.26,0-20.54l3.74-4H90.54Q92.43,74.06,94.31,76.08Z"/>
                <path class="cls-11" d="M119.69,72.07c0,3.39,0,6.78,0,10.17l-7-.25c0-.69,0-1.39,0-2.08l-4.59-.12c0,1.12,0,2.24,0,3.35l4.58.16c0,2.62,0,5.23,0,7.84l-4.59-.27c0,1.12,0,2.23,0,3.35l4.59.32c0-.7,0-1.39,0-2.09,2.33.16,4.65.32,7,.51q0,5.08,0,10.17-9.91-1.17-19.87-1.81l0-7.57,1.31.07q0-7.09,0-14.17l-1.3,0,0-7.57Z"/>
                <path class="cls-11" d="M141.33,72.1c1.25,1.58,2.5,3.2,3.74,4.84q0,4.57,0,9.15l-2.63,3.2c.88,1.2,1.75,2.42,2.63,3.65v5l1.31.19v9.07q-4.11-.78-8.23-1.46,0-6.24,0-12.47l-4.57-.46c0,1.23,0,2.46,0,3.69l1.31.15c0,2.85,0,5.71,0,8.56q-4.78-.75-9.58-1.38l0-8.21,1.32.13q0-7.71-.05-15.41l-1.32,0,0-8.21Zm-7.79,12.19c1.53.08,3.06.18,4.58.27,0-1.26,0-2.51,0-3.77l-4.58-.19Z"/>
                <polygon class="cls-12" points="132.96 129.53 127.07 119.52 132.97 109.62 21.09 109.62 26.98 119.63 21.08 129.53 132.96 129.53"/>
                <path class="cls-3" d="M19.43,130.46H134.6l-1.67-2.83-4.77-8.11,4.77-8,1.69-2.84H19.45l1.67,2.83,4.77,8.11-4.77,8Zm8.64-10.83-5.34-9.07H131.31l-5.33,9,5.33,9.08H22.73Z"/>
                <path class="cls-3" d="M36.34,119.42a1,1,0,1,1-1-1A1,1,0,0,1,36.34,119.42Z"/>
                <path class="cls-3" d="M40.43,122.6c.36-.1.48-.28.48-.73v-5.23c-.59,0-.83.33-.83,1.07v.94H38.36v-3.73h7.19v3.73H43.84v-.94c0-.74-.25-1-.82-1.07v5.23c0,.47.11.63.48.73v1.5H40.43Z"/>
                <path class="cls-3" d="M47.38,122.6c.37-.1.48-.28.48-.73v-4.72c0-.47-.11-.63-.48-.72v-1.51h6.49v2.84h-2v-.07c0-.71-.22-1-.85-1H50v1.85h2.56v1.55H50v2.18H51c.63,0,.84-.21.85-.91V121h2v3.07H47.38Z"/>
                <path class="cls-3" d="M62.13,121.79c.13.58.21.71.53.81v1.5H59.53v-1.5c.3,0,.48-.15.48-.43a2.13,2.13,0,0,0,0-.22v0l-.07-.39H58.11l-.08.39c0,.08,0,.22,0,.29,0,.26.18.4.51.41v1.5h-2.8v-1.5c.3-.1.41-.28.53-.88l1.34-6.8h3.15ZM59,117.18l-.59,3h1.25Z"/>
                <path class="cls-3" d="M64.4,122.6c.38-.1.49-.28.49-.73v-4.72c0-.47-.11-.63-.49-.73v-1.5h3.47l1,4.36L70,114.92h3.3v1.5c-.36.1-.48.28-.48.73v4.72c0,.47.11.63.48.73v1.5H70.21v-1.5c.37-.1.48-.28.48-.73v-3.78l-1.55,6h-1l-1.5-6v3.78c0,.47.13.63.48.73v1.5H64.4Z"/>
                <path class="cls-3" d="M79.32,122.6c.37-.1.48-.28.48-.73v-4.72c0-.47-.11-.63-.48-.73v-1.5h2.41l2.35,4.73v-2.5c0-.47-.12-.63-.48-.73v-1.5h2.92v1.5c-.37.1-.48.28-.48.73v6.95H84.11l-2.38-4.82v2.59c0,.47.12.63.48.73v1.5H79.32Z"/>
                <path class="cls-3" d="M94.65,121.79c.13.58.21.71.53.81v1.5H92.05v-1.5c.31,0,.48-.15.48-.43a2.13,2.13,0,0,0,0-.22v0l-.07-.39H90.63l-.08.39c0,.08,0,.22,0,.29,0,.26.18.4.51.41v1.5h-2.8v-1.5c.3-.1.41-.28.53-.88l1.34-6.8h3.15Zm-3.18-4.61-.59,3h1.26Z"/>
                <path class="cls-3" d="M96.92,122.6c.38-.1.49-.28.49-.73v-4.72c0-.47-.11-.63-.49-.73v-1.5h3.47l1,4.36,1.06-4.36h3.3v1.5c-.36.1-.48.28-.48.73v4.72c0,.47.11.63.48.73v1.5h-3.07v-1.5c.37-.1.48-.28.48-.73v-3.78l-1.55,6h-1l-1.5-6v3.78c0,.47.13.63.49.73v1.5H96.92Z"/>
                <path class="cls-3" d="M107.81,122.6c.37-.1.48-.28.48-.73v-4.72c0-.47-.11-.63-.48-.72v-1.51h6.5v2.84h-2v-.07c0-.71-.22-1-.85-1H110.4v1.85H113v1.55H110.4v2.18h1.07c.63,0,.84-.21.85-.91V121h2v3.07h-6.5Z"/>
                <path class="cls-3" d="M118.59,119.42a1,1,0,1,1-1-1A1,1,0,0,1,118.59,119.42Z"/>
            </g>
        </g>
    </g>
</svg>